<svg width="98" height="32" viewBox="0 0 98 32" fill="none" xmlns="http://www.w3.org/2000/svg">
<g clip-path="url(#clip0_76_27)">
<path fill-rule="evenodd" clip-rule="evenodd" d="M0 11.6291L8.26724 22.0881L0 28.9587V11.6291ZM3.32686 28.9587L9.54808 23.7396L13.8478 28.9587H3.32686ZM0 6.03268L2.15672 8.76965L11.028 19.8861L13.9028 17.5909C13.9028 17.5909 11.5167 14.7734 9.91403 11.6291C6.78105 5.48218 8.99914 1.65457 8.99914 1.65457H0V6.03268ZM12.2922 21.6026L15.2204 19.1774C15.2204 19.1774 18.0161 22.8681 21.258 23.7396C25.5067 24.8814 27.3875 22.0887 27.3875 22.0887V28.9587H18.0562L20.1602 27.134C20.1602 27.134 19.0623 27.868 16.3773 26.0031C14.793 24.9021 12.2922 21.6026 12.2922 21.6026ZM12.5617 1.63501C12.5617 1.63501 11.6279 2.91088 12.2922 6.03268C13.0034 9.36905 15.829 12.901 15.8226 12.8216C15.8226 12.8216 16.0039 9.31498 18.0562 7.25736C22.4299 2.87119 27.3875 5.48218 27.3875 5.48218V1.65514L12.5617 1.63501Z" fill="#F15A23"/>
<path fill-rule="evenodd" clip-rule="evenodd" d="M27.3875 10.1064C27.3875 10.1064 24.6216 7.73071 22.2165 7.73071C19.1403 7.73071 17.4614 10.3941 17.4614 12.3257C17.4614 15.1397 18.8082 16.7032 20.1602 18.0591C22.103 20.0074 24.4668 22.1087 27.3875 20.4175V10.1064Z" fill="#F15A23"/>
<path fill-rule="evenodd" clip-rule="evenodd" d="M58.8876 1.92147H65.4152C65.4152 1.92147 71.197 10.7013 74.0386 14.3293C76.8802 17.9562 79.9386 22.0881 79.9386 22.0881V3.88763C79.9386 3.10128 77.8805 1.92147 77.8805 1.92147H85.4073C85.4073 1.92147 82.9379 2.93906 82.9379 3.88763V30.3651C82.9379 30.3651 80.5678 29.0473 77.8805 25.9157C74.8617 22.3975 64.1211 8.19269 64.1211 8.19269V26.591C64.1211 27.5332 66.1792 28.9587 66.1792 28.9587H58.8876C58.8876 28.9587 60.8872 27.5217 60.8872 26.591V3.88763C60.8872 3.05181 58.8876 1.92147 58.8876 1.92147ZM89.6226 1.92147H98C98 1.92147 95.7503 2.98969 95.7503 3.88763V26.591C95.7503 27.5718 98 28.9587 98 28.9587H89.6226C89.6226 28.9587 91.7174 27.5407 91.7174 26.591V3.88763C91.7174 3.02477 89.6226 1.92147 89.6226 1.92147ZM34.2419 1.92147C34.2419 1.92147 36.4136 3.00752 36.4136 3.88763V26.591C36.4136 27.5563 34.2419 28.9587 34.2419 28.9587H46.6523C47.4278 28.9587 56.1149 27.5338 56.1149 20.8174C56.1149 14.1009 49.3671 13.4716 49.3671 13.4716C49.3671 13.4716 53.4781 12.3258 53.4781 7.73077C53.4781 2.77685 47.4278 1.9209 46.6523 1.9209L34.2419 1.92147ZM40.8343 13.0264V4.57388H45.8762C46.6517 4.57388 49.3665 5.48218 49.3665 8.85191C49.3665 11.6291 46.6517 13.0264 45.8756 13.0264H40.8343ZM40.8343 15.2433H46.6517C47.4272 15.2433 52.0033 16.4358 52.0033 20.4176C52.0033 24.477 47.4272 25.9157 46.6517 25.9157H40.8343V15.2433Z" fill="#005E6A"/>
</g>
<defs>
<clipPath id="clip0_76_27">
<rect width="98" height="32" fill="white"/>
</clipPath>
</defs>
</svg>
