<svg width="110" height="32" viewBox="0 0 110 32" fill="none" xmlns="http://www.w3.org/2000/svg">
<g clip-path="url(#clip0_76_9)">
<path d="M15.1212 31.9858C12.678 31.8949 10.2388 31.203 8.09715 29.9934C6.08883 28.8591 4.30501 27.2492 2.97001 25.3661C1.2696 22.9675 0.315035 20.3389 0.035608 17.2854C-0.0118653 16.7666 -0.0118705 15.2368 0.0355993 14.7154C0.237092 12.5018 0.738445 10.6917 1.67034 8.81321C2.18388 7.77803 2.69113 6.96384 3.34599 6.12363C5.32624 3.58287 7.79514 1.82716 10.8678 0.7746C11.568 0.534758 12.5876 0.29225 13.4288 0.165467C14.8856 -0.0540688 16.5944 -0.0552086 18.0257 0.162396C20.0014 0.462797 21.8167 1.09431 23.5231 2.07488C27.4857 4.35196 30.3253 8.34648 31.2024 12.8775C31.5189 14.5126 31.5801 16.2278 31.3838 17.9578C31.2629 19.0225 30.9813 20.2438 30.6085 21.3198C29.3463 24.9627 26.7871 28.054 23.4582 29.9568C21.3824 31.1433 18.8246 31.8916 16.559 31.9752C16.3448 31.9831 16.0617 31.9935 15.9299 31.9983C15.7981 32.0031 15.4342 31.9975 15.1212 31.9858ZM11.6798 22.1894C12.6652 22.0372 13.2931 21.8631 15.1212 21.2351C15.599 21.071 16.3648 20.808 16.8231 20.6507C18.5957 20.0423 19.6266 19.8144 20.7824 19.7754C22.1364 19.7298 23.3821 20.0438 24.4505 20.7C24.5867 20.7837 24.6826 20.8213 24.7655 20.8235C24.8782 20.8265 24.8867 20.8205 24.9232 20.7109C24.9541 20.618 24.9602 19.6808 24.9538 15.9742L24.9459 11.3534L24.8799 11.2123C24.7917 11.0236 24.6075 10.8296 24.3659 10.6709C23.6599 10.2073 22.8915 9.9006 22.0554 9.7488C21.6352 9.67251 20.6171 9.65617 20.1833 9.71875C19.0844 9.8773 17.9857 10.2296 14.8966 11.4141C13.8445 11.8175 13.0597 12.0756 12.3954 12.2366C10.3505 12.7325 8.74306 12.5088 7.13864 11.5053C6.78551 11.2844 6.69027 11.2636 6.60766 11.3894C6.5575 11.4658 6.55406 11.7243 6.5457 16.0439C6.53592 21.0974 6.52739 20.8539 6.72254 21.0901C6.77133 21.1492 6.92447 21.2657 7.06286 21.3491C7.8445 21.8202 8.79707 22.1439 9.69965 22.2453C10.1017 22.2905 11.2319 22.2586 11.6798 22.1894ZM37.4657 24.0928C37.4576 24.0716 37.4545 20.4367 37.4587 16.0153L37.4664 7.97645H40.6264C44.0452 7.97645 44.0676 7.97736 44.8499 8.14548C47.5579 8.72748 49.8155 10.7554 50.7167 13.4154C51.2628 15.0274 51.2849 16.8385 50.7785 18.484C50.2854 20.0863 49.2435 21.5622 47.8994 22.5623C47.0127 23.2221 45.986 23.6936 44.9065 23.9367C44.1136 24.1153 44.2447 24.1095 40.7233 24.1209C38.0931 24.1294 37.4776 24.1241 37.4657 24.0928ZM43.3522 20.6324C44.2952 20.5848 44.9191 20.3853 45.6736 19.8903C46.0704 19.6299 46.6547 19.051 46.9139 18.6615C48.0076 17.0178 47.9854 14.9513 46.8569 13.3556C46.6293 13.0338 46.151 12.5476 45.8323 12.3141C45.3882 11.9887 44.767 11.7015 44.2364 11.5761C43.7963 11.4721 43.5775 11.4592 42.2326 11.4574L40.8965 11.4556L40.8888 16.0427L40.8811 20.6297L40.9859 20.641C41.2081 20.6649 42.8247 20.659 43.3522 20.6324ZM57.0784 19.2057C57.0882 14.3494 57.0892 14.2767 57.1521 13.8929C57.3724 12.548 57.8623 11.4426 58.675 10.4568C60.0469 8.79296 62.0314 7.89283 64.1548 7.97138C65.1666 8.00881 66.0155 8.22177 66.9105 8.66274C68.7315 9.55996 70.0825 11.2644 70.5607 13.2679C70.7514 14.0669 70.7409 13.7415 70.7515 19.1756L70.7612 24.1289H69.053H67.3448V22.3956V20.6623H63.9304H60.5159L60.5082 22.3882L60.5005 24.114L58.7845 24.1217L57.0685 24.1294L57.0784 19.2057ZM67.3289 15.851C67.328 14.4085 67.319 14.3071 67.1459 13.7889C66.7478 12.5972 65.6823 11.6834 64.4623 11.4872C64.1206 11.4322 63.3841 11.4638 63.0765 11.5466C61.9725 11.8438 61.0834 12.6738 60.6993 13.7656C60.5303 14.246 60.5156 14.4143 60.5155 15.8735V17.196L63.9227 17.1884L67.3299 17.1808L67.3289 15.851ZM76.7115 19.3698C76.7157 16.244 76.7291 14.4826 76.7505 14.2372C76.8729 12.8332 77.4703 11.4251 78.4057 10.3358C79.9988 8.48066 82.4411 7.6239 84.8269 8.08325C87.4876 8.59555 89.6132 10.6758 90.213 13.3547C90.3976 14.179 90.3892 13.9153 90.4008 19.2503L90.4114 24.1289H88.6878H86.9642L86.9639 19.3997C86.9639 15.4474 86.9566 14.6239 86.9208 14.3865C86.826 13.7591 86.5635 13.1657 86.174 12.6982C85.6556 12.076 84.9829 11.6702 84.193 11.5032C83.9151 11.4445 83.2379 11.4445 82.9278 11.5031C81.4859 11.7761 80.3479 12.9958 80.1679 14.4613C80.1451 14.6469 80.1348 16.1874 80.1348 19.4296V24.1289L78.42 24.1289L76.7051 24.1289L76.7115 19.3698ZM96.3096 19.5028C96.3096 16.5991 96.3212 14.7271 96.3406 14.4748C96.4245 13.3847 96.6985 12.4222 97.1696 11.5626C98.0635 9.93122 99.5284 8.73824 101.252 8.23802C101.862 8.061 102.28 7.99388 102.914 7.97096C104.809 7.90255 106.592 8.60361 107.946 9.94865C108.838 10.835 109.515 12.0421 109.801 13.2539C109.992 14.063 109.98 13.706 109.991 19.1607L110 24.1289H108.292H106.584V22.3956V20.6623H103.169H99.7543V22.3956V24.1289H98.032H96.3097L96.3096 19.5028ZM106.578 16.0153C106.587 14.7908 106.567 14.4623 106.46 14.03C106.223 13.0758 105.516 12.2118 104.622 11.7834C103.336 11.1674 101.81 11.4195 100.803 12.4143C100.392 12.8205 100.105 13.2797 99.9225 13.8205C99.7699 14.2737 99.7543 14.4653 99.7543 15.8849V17.196L103.161 17.1884L106.569 17.1808L106.578 16.0153Z" fill="#0066FF"/>
</g>
<defs>
<clipPath id="clip0_76_9">
<rect width="110" height="32" fill="white"/>
</clipPath>
</defs>
</svg>
