<svg width="156" height="32" viewBox="0 0 156 32" fill="none" xmlns="http://www.w3.org/2000/svg">
<g clip-path="url(#clip0_76_12)">
<path d="M16.8657 29.7179C26.1804 29.7179 33.7314 23.5771 33.7314 16.0021C33.7314 8.42712 26.1804 2.28638 16.8657 2.28638C7.55104 2.28638 0 8.42712 0 16.0021C0 23.5771 7.55104 29.7179 16.8657 29.7179Z" fill="#00AED6"/>
<path fill-rule="evenodd" clip-rule="evenodd" d="M26.694 15.5761C26.6382 14.7417 26.1774 13.9588 25.4116 13.3971C24.6458 12.8354 23.6367 12.5402 22.6032 12.5757H11.9504C11.8577 12.5754 11.766 12.5604 11.6805 12.5315C11.595 12.5026 11.5174 12.4604 11.4521 12.4073C11.3868 12.3542 11.3351 12.2912 11.2999 12.2219C11.2647 12.1526 11.2468 12.0785 11.2471 12.0036C11.2471 11.6876 11.5616 11.4315 11.9504 11.4315H22.7443C22.7174 10.8553 22.4649 10.3008 22.023 9.8479C21.5811 9.395 20.9728 9.06703 20.2854 8.91121C17.1405 8.45961 13.9216 8.45961 10.7766 8.91121C9.90058 9.08845 9.11064 9.47422 8.50927 10.0185C7.9079 10.5628 7.52283 11.2404 7.404 11.9636C6.90505 14.6556 6.90505 17.3926 7.404 20.0846C7.58689 20.8478 8.05219 21.5482 8.73839 22.0932C9.42459 22.6382 10.2994 23.0022 11.2471 23.137C15.151 23.5314 19.1005 23.5314 23.0044 23.137C23.8533 22.994 24.6251 22.6389 25.2104 22.122C25.7957 21.605 26.1648 20.9524 26.2656 20.2567C26.6122 18.7125 26.7583 17.1443 26.694 15.5761ZM23.195 17.4963V18.0044C23.1953 18.0792 23.1774 18.1534 23.1423 18.2227C23.1071 18.2919 23.0554 18.3549 22.9901 18.4081C22.9248 18.4612 22.8472 18.5034 22.7617 18.5323C22.6762 18.5612 22.5844 18.5762 22.4918 18.5764C22.3991 18.5762 22.3074 18.5612 22.2219 18.5323C22.1364 18.5034 22.0588 18.4612 21.9935 18.4081C21.9282 18.3549 21.8765 18.2919 21.8413 18.2227C21.8061 18.1534 21.7882 18.0792 21.7885 18.0044V17.4963C21.6283 17.3812 21.5153 17.2294 21.4643 17.0612C21.4134 16.893 21.4269 16.7162 21.5032 16.5543C21.5795 16.3925 21.7149 16.2532 21.8914 16.1549C22.068 16.0566 22.2774 16.004 22.4918 16.0041C22.7062 16.004 22.9155 16.0566 23.0921 16.1549C23.2686 16.2532 23.404 16.3925 23.4803 16.5543C23.5566 16.7162 23.5702 16.893 23.5192 17.0612C23.4683 17.2294 23.3552 17.3812 23.195 17.4963Z" fill="white"/>
<path d="M46.9001 22.8228C47.6007 23.6383 48.547 24.2961 49.6496 24.7343C50.7522 25.1725 51.9748 25.3765 53.2021 25.3271C56.1415 25.3271 58.3007 23.8009 58.3007 21.7267V20.6325H58.2289C56.6194 21.9127 54.4229 22.5808 52.177 22.4768C50.4303 22.5156 48.7025 22.1763 47.1729 21.4939C45.6433 20.8116 44.3675 19.8111 43.4779 18.5963C42.5823 17.3779 42.1021 15.9896 42.086 14.5727C42.0699 13.1558 42.5185 11.7607 43.3863 10.5292C44.2493 9.30197 45.5029 8.28348 47.0172 7.57936C48.5316 6.87524 50.2515 6.51111 51.9987 6.52473C53.1326 6.46605 54.2695 6.59393 55.3404 6.90063C56.4113 7.20732 57.394 7.68644 58.2289 8.30895H58.3007V6.81276H63.3275V21.6706C63.3275 25.9892 59.1179 28.9836 53.2021 28.9836C51.2901 29.0669 49.381 28.7813 47.6327 28.1504C45.8845 27.5194 44.3474 26.5612 43.1486 25.3551L46.9001 22.8228ZM58.0903 13.5776C58.0903 11.8514 55.6809 10.2672 52.9917 10.2672C49.5918 10.2672 47.326 11.9374 47.326 14.4417C47.227 15.6299 47.7717 16.792 48.8241 17.6181C49.342 18.0265 49.9647 18.338 50.648 18.5305C51.3314 18.723 52.0588 18.7919 52.7787 18.7323C55.718 18.7323 58.0903 17.2361 58.0903 15.3638V13.5776ZM76.5631 6.38071C82.6893 6.38071 87.1515 9.92116 87.1515 14.4417C87.1515 18.9623 82.6893 22.5048 76.5631 22.5048C74.7462 22.5996 72.932 22.2887 71.3194 21.606C69.7068 20.9233 68.358 19.8951 67.4208 18.6343C66.4777 17.3688 65.9794 15.9198 65.9794 14.4427C65.9794 12.9657 66.4777 11.5166 67.4208 10.2512C68.358 8.99033 69.7068 7.9622 71.3194 7.27949C72.932 6.59677 74.7462 6.28582 76.5631 6.38071ZM76.5631 10.1212C75.1515 10.1328 73.8032 10.5964 72.8144 11.4102C71.8255 12.224 71.2768 13.3215 71.2887 14.4617C71.29 15.602 71.8513 16.6952 72.8494 17.5015C73.8476 18.3078 75.201 18.7612 76.6126 18.7623C78.0242 18.7559 79.375 18.2974 80.3685 17.4874C81.362 16.6774 81.917 15.582 81.9118 14.4417C81.9446 13.8654 81.8283 13.29 81.5703 12.752C81.3124 12.214 80.9184 11.7254 80.4136 11.3173C79.9114 10.9112 79.3091 10.595 78.6457 10.3892C77.9823 10.1835 77.2727 10.0908 76.5631 10.1212ZM89.8704 6.81276H94.8972V8.16493H94.9715C95.7827 7.55739 96.7357 7.08666 97.7749 6.7803C98.8141 6.47393 99.9185 6.33808 101.023 6.38071C106.422 6.46072 110.75 10.0372 110.76 14.4277C110.77 18.8203 106.456 22.4087 101.058 22.5048C98.9285 22.5448 96.8485 21.9747 95.182 20.8925H95.1101V28.5515H89.8704V6.81276ZM100.211 10.1532C97.4477 10.1532 95.1101 11.7354 95.1101 13.4636V15.3919C95.1101 17.2361 97.3784 18.7603 100.243 18.7603C101.652 18.7529 102.999 18.294 103.988 17.4845C104.978 16.6751 105.529 15.5813 105.52 14.4437C105.521 13.8803 105.384 13.3223 105.117 12.8017C104.85 12.281 104.459 11.8079 103.966 11.4093C103.473 11.0107 102.888 10.6944 102.244 10.4785C101.599 10.2627 100.909 10.1514 100.211 10.1512V10.1532ZM120.856 12.9735C124.29 12.5995 125.318 12.1974 125.318 11.4193C125.318 10.4112 124.005 9.80714 121.99 9.80714C120.935 9.7368 119.883 9.97384 119.026 10.4754C118.168 10.9769 117.561 11.7098 117.315 12.5415L112.357 11.7074C113.065 8.59699 116.998 6.38071 121.846 6.38071C127.334 6.38071 130.736 8.655 130.736 12.3675V22.0727H126.024V20.4025H125.949C125.165 21.1233 124.185 21.6879 123.086 22.0526C121.986 22.4172 120.798 22.572 119.613 22.5048C115.47 22.5048 112.605 20.6625 112.605 17.9542C112.605 15.1038 114.942 13.6356 120.856 12.9735ZM125.741 14.5857H125.672C125.209 15.1338 124.218 15.4499 121.67 15.8259C118.59 16.286 117.493 16.774 117.493 17.6661C117.493 18.5883 118.414 18.9923 120.395 18.9923C123.406 18.9923 125.744 17.8682 125.744 16.4L125.741 14.5857ZM140.708 21.2386L132.033 6.81276H137.806L143.506 16.774H143.575L149.206 6.81276H155.013L142.02 28.5555H136.248L140.708 21.2386Z" fill="black"/>
</g>
<defs>
<clipPath id="clip0_76_12">
<rect width="156" height="32" fill="white"/>
</clipPath>
</defs>
</svg>
