<svg width="40" height="40" viewBox="0 0 40 40" fill="none" xmlns="http://www.w3.org/2000/svg">
<rect width="40" height="40" rx="4" fill="#EDEDED"/>
<path d="M20 10C25.523 10 30 14.477 30 20C30 25.523 25.523 30 20 30C14.477 30 10 25.523 10 20C10 14.477 14.477 10 20 10ZM20 14C19.7348 14 19.4804 14.1054 19.2929 14.2929C19.1054 14.4804 19 14.7348 19 15V20C19.0001 20.2652 19.1055 20.5195 19.293 20.707L22.293 23.707C22.4816 23.8892 22.7342 23.99 22.9964 23.9877C23.2586 23.9854 23.5094 23.8802 23.6948 23.6948C23.8802 23.5094 23.9854 23.2586 23.9877 22.9964C23.99 22.7342 23.8892 22.4816 23.707 22.293L21 19.586V15C21 14.7348 20.8946 14.4804 20.7071 14.2929C20.5196 14.1054 20.2652 14 20 14Z" fill="#222222"/>
</svg>
