<svg width="40" height="40" viewBox="0 0 40 40" fill="none" xmlns="http://www.w3.org/2000/svg">
<rect width="40" height="40" fill="#EDEDED"/>
<path d="M14.054 11.732L23.9705 15.9815L20 17.6825L10.1405 13.457C10.3625 13.2305 10.634 13.0475 10.943 12.929L14.054 11.732ZM16.061 10.961L18.386 10.067C19.4254 9.66744 20.5761 9.66744 21.6155 10.067L29.0585 12.929C29.366 13.049 29.6375 13.229 29.8595 13.457L25.8755 15.164L16.061 10.961ZM30.491 14.819L20.75 18.9935V30.1685C21.045 30.1185 21.3335 30.0395 21.6155 29.9315L29.0585 27.068C29.4828 26.9046 29.8477 26.6165 30.105 26.2416C30.3623 25.8668 30.5001 25.4227 30.5 24.968V15.029C30.5 14.959 30.4965 14.889 30.4895 14.819M19.25 30.1685V18.9935L9.5105 14.819C9.50455 14.8889 9.50105 14.9589 9.5 15.029V24.968C9.50006 25.4229 9.63799 25.8671 9.8956 26.242C10.1532 26.6169 10.5184 26.9049 10.943 27.068L18.3845 29.9315C18.6665 30.0395 18.955 30.1185 19.25 30.1685Z" fill="black"/>
</svg>
