<svg width="40" height="40" viewBox="0 0 40 40" fill="none" xmlns="http://www.w3.org/2000/svg">
<rect width="40" height="40" rx="4" fill="#EDEDED"/>
<path d="M20 19.5C19.337 19.5 18.7011 19.2366 18.2322 18.7678C17.7634 18.2989 17.5 17.663 17.5 17C17.5 16.337 17.7634 15.7011 18.2322 15.2322C18.7011 14.7634 19.337 14.5 20 14.5C20.663 14.5 21.2989 14.7634 21.7678 15.2322C22.2366 15.7011 22.5 16.337 22.5 17C22.5 17.3283 22.4353 17.6534 22.3097 17.9567C22.1841 18.26 21.9999 18.5356 21.7678 18.7678C21.5356 18.9999 21.26 19.1841 20.9567 19.3097C20.6534 19.4353 20.3283 19.5 20 19.5ZM20 10C18.1435 10 16.363 10.7375 15.0503 12.0503C13.7375 13.363 13 15.1435 13 17C13 22.25 20 30 20 30C20 30 27 22.25 27 17C27 15.1435 26.2625 13.363 24.9497 12.0503C23.637 10.7375 21.8565 10 20 10Z" fill="black"/>
</svg>
