<svg width="40" height="40" viewBox="0 0 40 40" fill="none" xmlns="http://www.w3.org/2000/svg">
<rect width="40" height="40" fill="#EDEDED"/>
<path d="M8.5 21.325L9 19.325H14.5L14 21.325H8.5ZM15 28C14.1667 28 13.4583 27.7083 12.875 27.125C12.2917 26.5417 12 25.8333 12 25H9.5L10 22.825H15.175L16.075 19.175H18.175L19.425 14.175H12.5L12.65 13.575C12.75 13.1083 12.9793 12.7293 13.338 12.438C13.6967 12.1467 14.1173 12.0007 14.6 12H26L25.075 16H28L31 20L30 25H28C28 25.8333 27.7083 26.5417 27.125 27.125C26.5417 27.7083 25.8333 28 25 28C24.1667 28 23.4583 27.7083 22.875 27.125C22.2917 26.5417 22 25.8333 22 25H18C18 25.8333 17.7083 26.5417 17.125 27.125C16.5417 27.7083 15.8333 28 15 28ZM10.5 17.675L11 15.675H17.5L17 17.675H10.5ZM15 26C15.2833 26 15.521 25.904 15.713 25.712C15.905 25.52 16.0007 25.2827 16 25C15.9993 24.7173 15.9033 24.48 15.712 24.288C15.5207 24.096 15.2833 24 15 24C14.7167 24 14.4793 24.096 14.288 24.288C14.0967 24.48 14.0007 24.7173 14 25C13.9993 25.2827 14.0953 25.5203 14.288 25.713C14.4807 25.9057 14.718 26.0013 15 26ZM25 26C25.2833 26 25.521 25.904 25.713 25.712C25.905 25.52 26.0007 25.2827 26 25C25.9993 24.7173 25.9033 24.48 25.712 24.288C25.5207 24.096 25.2833 24 25 24C24.7167 24 24.4793 24.096 24.288 24.288C24.0967 24.48 24.0007 24.7173 24 25C23.9993 25.2827 24.0953 25.5203 24.288 25.713C24.4807 25.9057 24.718 26.0013 25 26ZM23.925 21H28.75L28.85 20.475L27 18H24.625L23.925 21Z" fill="#222222"/>
</svg>
