<svg width="110" height="32" viewBox="0 0 110 32" fill="none" xmlns="http://www.w3.org/2000/svg">
<g clip-path="url(#clip0_76_24)">
<path d="M0.129118 21.9897C0.129118 20.4003 0.101315 19.0696 0.0153809 17.8791H3.02434L3.16715 19.9218H3.25055C3.93171 18.8436 5.18028 17.566 7.50809 17.566C9.32535 17.566 10.7433 18.5886 11.3397 20.1187H11.3979C11.8806 19.3537 12.4468 18.7856 13.0989 18.3904C13.866 17.8501 14.7481 17.566 15.8816 17.566C18.1816 17.566 20.5069 19.1252 20.5069 23.5514V31.6868H17.1011V24.0589C17.1011 21.7638 16.3062 20.4003 14.6318 20.4003C13.4401 20.4003 12.5593 21.2537 12.1915 22.246C12.0892 22.6247 12.0319 23.0141 12.0209 23.4062V31.6881H8.61513V23.689C8.61513 21.765 7.8493 20.4015 6.23045 20.4015C4.92754 20.4015 4.04797 21.4241 3.73204 22.3862C3.59176 22.727 3.53363 23.126 3.53363 23.5199V31.6881H0.129118V21.9897ZM33.7774 28.3716C33.7774 29.6176 33.8343 30.8359 33.9746 31.6881H30.8241L30.5979 30.158H30.5119C29.6602 31.2361 28.2119 31.9987 26.4275 31.9987C23.6448 31.9987 22.0841 29.9875 22.0841 27.888C22.0841 24.3973 25.1752 22.6424 30.287 22.6702V22.4442C30.287 21.5352 29.9167 20.0329 27.4752 20.0329C26.1116 20.0329 24.6937 20.4596 23.7573 21.053L23.0761 18.7843C24.0985 18.1594 25.8867 17.5648 28.0704 17.5648C32.4998 17.5648 33.7787 20.375 33.7787 23.3772L33.7774 28.3716ZM30.3704 24.9414C27.8998 24.8833 25.5454 25.4224 25.5454 27.5206C25.5454 28.8816 26.4275 29.5065 27.5333 29.5065C28.9222 29.5065 29.9458 28.5963 30.2579 27.6052C30.3344 27.3574 30.3727 27.0995 30.3717 26.8402L30.3704 24.9414ZM36.1887 21.9897C36.1887 20.4003 36.1596 19.0696 36.0774 17.8791H39.1395L39.3088 19.9521H39.3948C39.99 18.8727 41.4951 17.566 43.7938 17.566C46.2076 17.566 48.7035 19.1252 48.7035 23.4946V31.6868H45.213V23.891C45.213 21.9064 44.4737 20.399 42.5731 20.399C41.1842 20.399 40.2162 21.3926 39.8484 22.443C39.7347 22.7535 39.7069 23.1803 39.7069 23.5741V31.6856H36.1874L36.1887 21.9897ZM63.8405 12.3318V27.8034C63.8405 29.2212 63.8987 30.7551 63.9543 31.6881H60.8341L60.6913 29.5065H60.6332C59.8117 31.0366 58.1348 31.9999 56.1216 31.9999C52.8283 31.9999 50.2187 29.1934 50.2187 24.9427C50.1884 20.3195 53.0823 17.5673 56.406 17.5673C58.3066 17.5673 59.6689 18.3614 60.2932 19.3865H60.3526V12.3331H63.8418L63.8405 12.3318ZM60.3514 23.6347C60.3514 23.3532 60.3236 23.0123 60.2654 22.727C59.9533 21.3686 58.8488 20.2614 57.2577 20.2614C55.0158 20.2614 53.7647 22.2473 53.7647 24.8265C53.7647 27.3477 55.0146 29.1922 57.2299 29.1922C58.6466 29.1922 59.8964 28.2264 60.2364 26.724C60.3223 26.4135 60.3526 26.0713 60.3526 25.7039L60.3514 23.6347ZM66.3099 31.6881V17.8791H69.8319V31.6881H66.3099ZM72.2987 22.3319C72.2987 20.4609 72.2722 19.1264 72.1875 17.8804H75.2243L75.3355 20.5152H75.4505C76.1317 18.5596 77.748 17.8804 79.2278 17.8804C79.5678 17.8804 79.7649 17.8223 80.048 17.8804V20.9444C79.7131 20.8704 79.3712 20.8323 79.0282 20.8308C77.3499 20.8308 76.2151 21.9089 75.9042 23.4656C75.8354 23.8219 75.7978 24.1835 75.7917 24.5463V31.6893H72.2987V22.3319ZM81.6681 31.6881V17.8791H85.1851V31.6881H81.6681Z" fill="#0D2B5B"/>
<path d="M107.093 3.27483C105.351 1.28895 103.498 2.18784 102.026 2.91881C101.406 3.22433 96.9366 5.75559 96.9366 5.75559C94.4875 6.76431 92.5805 5.66343 91.8324 4.73678C91.7608 4.6489 91.6962 4.55562 91.639 4.45777L91.4646 4.15604C91.1699 3.64675 90.8423 3.15714 90.484 2.6903C90.2665 2.40734 90.031 2.13871 89.7788 1.8861C88.1031 0.195648 85.4252 -0.987292 80.9491 1.16144C78.8298 2.38857 71.926 6.32876 71.926 6.32876C69.3315 7.39555 67.3474 6.09646 66.7029 5.14329C66.6739 5.1076 66.6485 5.06912 66.6271 5.02841L66.5424 4.88449L66.1052 4.16992C65.9079 3.85691 65.6962 3.55317 65.4708 3.25968C65.2512 2.97851 65.0153 2.71041 64.7643 2.45674C63.1 0.776387 60.436 -0.404028 55.9991 1.70431C53.3161 3.23443 47.0758 6.7984 47.0758 6.7984L47.0733 6.80093L42.5061 9.40794L44.8693 12.3066C45.8639 13.2534 47.7329 14.8063 50.6244 13.4971C50.6244 13.4971 58.6049 8.88023 58.6365 8.86634C65.4594 5.12562 68.826 8.69969 70.3147 11.082C70.3665 11.1565 70.4082 11.2373 70.455 11.3092L70.4575 11.313C70.4764 11.3421 70.4878 11.3686 70.5043 11.3963L70.6723 11.6716C71.3977 12.7699 72.5414 13.4794 73.905 13.4466C74.6569 13.4315 75.1674 13.1865 75.9105 12.7737L83.632 8.29948L83.6484 8.29191C90.5573 4.50574 93.9807 8.31337 95.4429 10.6957C95.5566 10.9014 95.6855 11.0984 95.8182 11.2815C96.5423 12.2624 97.5407 12.905 98.8095 12.8734C99.6473 12.857 100.586 12.3546 100.727 12.2624L109.983 6.92465C109.986 6.92717 109.041 5.49931 107.093 3.27483Z" fill="#FDD213"/>
</g>
<defs>
<clipPath id="clip0_76_24">
<rect width="110" height="32" fill="white"/>
</clipPath>
</defs>
</svg>
