<svg width="87" height="32" viewBox="0 0 87 32" fill="none" xmlns="http://www.w3.org/2000/svg">
<g clip-path="url(#clip0_76_7)">
<path d="M20.561 26.6246V21.2491H23.3704H26.1797V26.6246V32H23.3704H20.561V26.6246ZM75.9002 31.172V30.5193H80.1433C83 30.5193 84.4077 30.5169 84.4516 30.512C84.713 30.4832 84.9632 30.3841 85.1694 30.2279C85.2365 30.1771 85.3652 30.0513 85.4146 29.9882C85.5286 29.8428 85.611 29.6686 85.6532 29.4843L85.6692 29.4141L85.6713 25.3316L85.6733 21.2491H86.3367H87V25.9326C87 29.1718 86.9977 30.6385 86.9923 30.6887C86.9604 30.9918 86.814 31.2762 86.5802 31.4891C86.4018 31.6515 86.1845 31.7589 85.9342 31.8083C85.8762 31.8198 85.586 31.8206 80.8864 31.8226L75.9002 31.8247V31.172ZM4.89012 26.6411C4.6657 26.6164 4.51413 26.5714 4.35024 26.4808C3.95929 26.2649 3.7048 25.8827 3.66094 25.4456C3.65509 25.3873 3.65408 24.9008 3.65732 23.6912C3.66819 19.6201 3.68369 14.15 3.69027 12.0561C3.69421 10.8037 3.69773 9.12842 3.6981 8.33333C3.69846 7.53825 3.7014 6.75825 3.70464 6.6C3.70985 6.34508 3.7123 6.30428 3.72618 6.24211C3.81307 5.85267 4.07472 5.53316 4.44788 5.36083C4.57973 5.29993 4.70224 5.26365 4.86475 5.23737C4.93594 5.22586 5.08435 5.22492 7.15394 5.22285L9.367 5.22064V13.3437V21.4667H13.5466H17.7262V24.0561V26.6456L11.3191 26.6446C7.79511 26.644 4.90209 26.6424 4.89012 26.6411ZM28.5142 20.007V13.3684H36.7394H44.9645V11.7789V10.1895H36.7394H28.5142V7.70526V5.22105H39.73H50.9457V11.7544V18.2877L46.2439 18.2895L41.542 18.2912L46.2156 22.4421C48.786 24.7251 50.9027 26.6047 50.9193 26.619L50.9494 26.645L46.951 26.6451L42.9526 26.6452L38.338 22.4659L33.7234 18.2867L33.7215 22.4662L33.7197 26.6456H31.117H28.5142V20.007ZM53.2802 15.9123V5.17895H56.0207H58.7612V15.9123V26.6456H56.0207H53.2802V15.9123ZM61.1392 23.8772V21.2H68.5197H75.9002V19.8737V18.5474H68.5197H61.1392V11.8842V5.22105H72.2172H83.2952V7.87719V10.5333H75.9184H68.5415V11.8842V13.2351H75.9184H83.2952V19.8947V26.5544H72.2172H61.1392V23.8772ZM12.1075 15.9123V13.193H14.8951H17.6827V15.9123V18.6316H14.8951H12.1075V15.9123ZM16.037 15.8912V14.8H14.8951H13.7532V15.8865C13.7532 16.4842 13.7554 16.9752 13.7581 16.9778C13.7607 16.9804 14.2746 16.9825 14.9 16.9825H16.037V15.8912ZM20.561 14.5825V10.5754H16.3342H12.1075L12.1093 7.9L12.1111 5.22456H18.5129H24.9146L25.0089 5.24102C25.5932 5.34307 26.0279 5.73622 26.1565 6.27906L26.176 6.3614L26.1779 12.4754L26.1798 18.5895H23.3704H20.561V14.5825ZM0.0119987 10.5626C0.000859174 10.5507 0 10.2166 0 5.89668C0 2.69354 0.00237545 1.22095 0.00762312 1.17092C0.0492756 0.773835 0.264864 0.427781 0.603398 0.214605C0.779274 0.103855 1.00857 0.0280898 1.23146 0.00707798C1.2811 0.00239795 2.9614 0 6.19114 0C10.9141 0 11.0761 0.000424798 11.0878 0.0128333C11.0987 0.0245736 11.0997 0.0791666 11.0997 0.653851C11.0997 1.25351 11.0991 1.28256 11.0865 1.29365C11.0742 1.30443 10.7677 1.30526 6.82321 1.30526C3.88036 1.30526 2.55153 1.30755 2.50278 1.3127C2.26204 1.33812 2.03321 1.42397 1.85237 1.55672C1.78785 1.60409 1.68651 1.7012 1.63513 1.76491C1.48912 1.94595 1.40531 2.1511 1.37792 2.39446C1.37262 2.44157 1.37025 3.71142 1.37025 6.50799C1.37025 10.1763 1.36919 10.5544 1.35886 10.5644C1.34867 10.5743 1.27764 10.5754 0.685731 10.5754C0.0538616 10.5754 0.0234558 10.5749 0.0119987 10.5626Z" fill="black"/>
</g>
<defs>
<clipPath id="clip0_76_7">
<rect width="87" height="32" fill="white"/>
</clipPath>
</defs>
</svg>
